<?xml version="1.0" encoding="UTF-8" standalone="no"?>
<!-- Created with Inkscape (http://www.inkscape.org/) -->

<svg
   xmlns:dc="http://purl.org/dc/elements/1.1/"
   xmlns:cc="http://creativecommons.org/ns#"
   xmlns:rdf="http://www.w3.org/1999/02/22-rdf-syntax-ns#"
   xmlns:svg="http://www.w3.org/2000/svg"
   xmlns="http://www.w3.org/2000/svg"
   xmlns:sodipodi="http://sodipodi.sourceforge.net/DTD/sodipodi-0.dtd"
   xmlns:inkscape="http://www.inkscape.org/namespaces/inkscape"
   id="svg2"
   version="1.1"
   inkscape:version="0.48.5 r10040"
   width="256"
   height="259"
   sodipodi:docname="quickdcp.svg">
  <metadata
     id="metadata8">
    <rdf:RDF>
      <cc:Work
         rdf:about="">
        <dc:format>image/svg+xml</dc:format>
        <dc:type
           rdf:resource="http://purl.org/dc/dcmitype/StillImage" />
        <dc:title />
      </cc:Work>
    </rdf:RDF>
  </metadata>
  <defs
     id="defs6">
    <linearGradient
       id="linearGradient3012">
      <stop
         style="stop-color:#000000;stop-opacity:1;"
         offset="0"
         id="stop3014" />
      <stop
         style="stop-color:#000000;stop-opacity:0;"
         offset="1"
         id="stop3016" />
    </linearGradient>
  </defs>
  <sodipodi:namedview
     pagecolor="#ffffff"
     bordercolor="#666666"
     borderopacity="1"
     objecttolerance="10"
     gridtolerance="10"
     guidetolerance="10"
     inkscape:pageopacity="0"
     inkscape:pageshadow="2"
     inkscape:window-width="1024"
     inkscape:window-height="563"
     id="namedview4"
     showgrid="false"
     inkscape:zoom="1.288627"
     inkscape:cx="144.18387"
     inkscape:cy="117.27552"
     inkscape:window-x="0"
     inkscape:window-y="17"
     inkscape:window-maximized="1"
     inkscape:current-layer="svg2" />
  <rect
     style="fill:#000000;fill-opacity:1;stroke:#7a7cf4;stroke-opacity:1;stroke-width:6.29999999999999982;stroke-miterlimit:4;stroke-dasharray:none"
     id="rect3203"
     width="256"
     height="256"
     x="-2.652786e-06"
     y="1.9025488"
     rx="45.263" />
  <path
     sodipodi:type="arc"
     style="fill:#ffffff"
     id="path3172"
     sodipodi:cx="130.59746"
     sodipodi:cy="131.69492"
     sodipodi:rx="99.868645"
     sodipodi:ry="100.9661"
     d="m 230.4661,131.69492 a 99.868645,100.9661 0 1 1 -199.737287,0 99.868645,100.9661 0 1 1 199.737287,0 z"
     transform="translate(-2.1949153,-4.3898306)" />
  <path
     sodipodi:type="arc"
     style="fill:#000000;fill-opacity:1"
     id="path3174"
     sodipodi:cx="135.53603"
     sodipodi:cy="131.14618"
     sodipodi:rx="75.17585"
     sodipodi:ry="75.17585"
     d="m 210.71188,131.14618 a 75.17585,75.17585 0 1 1 -150.351704,0 75.17585,75.17585 0 1 1 150.351704,0 z"
     transform="translate(-8.7796612,-5.4872883)" />
  <path
     sodipodi:type="arc"
     style="fill:#7a7cf4;fill-opacity:1"
     id="path3176"
     sodipodi:cx="159.13136"
     sodipodi:cy="159.68008"
     sodipodi:rx="15.364408"
     sodipodi:ry="14.815679"
     d="m 174.49577,159.68008 a 15.364408,14.815679 0 1 1 -30.72881,0 15.364408,14.815679 0 1 1 30.72881,0 z"
     transform="matrix(1.3788072,0,0,1.3928371,-90.754053,-94.487962)" />
  <path
     sodipodi:type="arc"
     style="fill:#ffffff;fill-opacity:1"
     id="path3176-8"
     sodipodi:cx="159.13136"
     sodipodi:cy="159.68008"
     sodipodi:rx="15.364408"
     sodipodi:ry="14.815679"
     d="m 174.49577,159.68008 a 15.364408,14.815679 0 1 1 -30.72881,0 15.364408,14.815679 0 1 1 30.72881,0 z"
     transform="translate(3.2923656,2.7436426)" />
  <path
     sodipodi:type="arc"
     style="fill:#ffffff;fill-opacity:1"
     id="path3176-0"
     sodipodi:cx="159.13136"
     sodipodi:cy="159.68008"
     sodipodi:rx="15.364408"
     sodipodi:ry="14.815679"
     d="m 174.49577,159.68008 a 15.364408,14.815679 0 1 1 -30.72881,0 15.364408,14.815679 0 1 1 30.72881,0 z"
     transform="translate(51.580506,51.031779)" />
  <path
     style="fill:#ffffff;stroke:none"
     d="m 151.26664,172.39813 50.50293,50.75659 19.96626,-23.0712 -50.50293,-49.603 z"
     id="path3207"
     inkscape:connector-curvature="0" />
</svg>
