<?xml version="1.0" encoding="UTF-8" standalone="no"?>
<!-- Created with Inkscape (http://www.inkscape.org/) -->

<svg
   xmlns:dc="http://purl.org/dc/elements/1.1/"
   xmlns:cc="http://creativecommons.org/ns#"
   xmlns:rdf="http://www.w3.org/1999/02/22-rdf-syntax-ns#"
   xmlns:svg="http://www.w3.org/2000/svg"
   xmlns="http://www.w3.org/2000/svg"
   xmlns:sodipodi="http://sodipodi.sourceforge.net/DTD/sodipodi-0.dtd"
   xmlns:inkscape="http://www.inkscape.org/namespaces/inkscape"
   width="512"
   height="512"
   id="svg2"
   version="1.1"
   inkscape:version="0.48.5 r10040"
   sodipodi:docname="mxf-bullet.svg">
  <defs
     id="defs4">
    <inkscape:path-effect
       effect="spiro"
       id="path-effect3870"
       is_visible="true" />
    <inkscape:path-effect
       effect="spiro"
       id="path-effect3866"
       is_visible="true" />
    <linearGradient
       id="linearGradient3012">
      <stop
         id="stop3014"
         offset="0"
         style="stop-color:#000000;stop-opacity:1;" />
      <stop
         id="stop3016"
         offset="1"
         style="stop-color:#000000;stop-opacity:0;" />
    </linearGradient>
    <linearGradient
       id="linearGradient3012-5">
      <stop
         id="stop3014-6"
         offset="0"
         style="stop-color:#000000;stop-opacity:1;" />
      <stop
         id="stop3016-2"
         offset="1"
         style="stop-color:#000000;stop-opacity:0;" />
    </linearGradient>
  </defs>
  <sodipodi:namedview
     id="base"
     pagecolor="#ffffff"
     bordercolor="#666666"
     borderopacity="1.0"
     inkscape:pageopacity="0.0"
     inkscape:pageshadow="2"
     inkscape:zoom="0.98994949"
     inkscape:cx="348.92115"
     inkscape:cy="258.67295"
     inkscape:document-units="px"
     inkscape:current-layer="layer1"
     showgrid="false"
     showguides="true"
     inkscape:guide-bbox="true"
     inkscape:window-width="1876"
     inkscape:window-height="1036"
     inkscape:window-x="21"
     inkscape:window-y="21"
     inkscape:window-maximized="0"
     inkscape:snap-to-guides="false">
    <sodipodi:guide
       orientation="0,1"
       position="256.57875,255.56859"
       id="guide3846" />
    <sodipodi:guide
       orientation="1,0"
       position="256.57875,368.70568"
       id="guide3848" />
  </sodipodi:namedview>
  <metadata
     id="metadata7">
    <rdf:RDF>
      <cc:Work
         rdf:about="">
        <dc:format>image/svg+xml</dc:format>
        <dc:type
           rdf:resource="http://purl.org/dc/dcmitype/StillImage" />
        <dc:title></dc:title>
      </cc:Work>
    </rdf:RDF>
  </metadata>
  <g
     inkscape:label="Calque 1"
     inkscape:groupmode="layer"
     id="layer1"
     transform="translate(0,-540.36218)">
    <path
       sodipodi:type="arc"
       style="opacity:0.95999995;fill:#ffffff;fill-opacity:1;stroke:#7a7cf4;stroke-width:9.76102924;stroke-miterlimit:4;stroke-opacity:1;stroke-dasharray:none;stroke-dashoffset:0"
       id="path3066"
       sodipodi:cx="-229.30463"
       sodipodi:cy="89.756233"
       sodipodi:rx="56.568542"
       sodipodi:ry="56.568542"
       d="m -172.73608,89.756233 a 56.568542,56.568542 0 1 1 -113.13709,0 56.568542,56.568542 0 1 1 113.13709,0 z"
       transform="matrix(4.169642,0,0,4.1696427,1211.1817,423.04725)" />
    <g
       id="g5119"
       transform="matrix(0.88884116,0,0,0.88884116,23.403619,90.338253)">
      <g
         id="g5109">
        <g
           id="g5103">
          <path
             sodipodi:nodetypes="cccsscccsccsc"
             transform="translate(0,540.36218)"
             inkscape:connector-curvature="0"
             id="path5099"
             d="m 41.428572,335.57143 32.857143,0 -0.714286,-76.42857 c 0,0 2.857143,-22.85715 3.571428,-25.71429 0.714286,-2.85714 2.142858,-4.28571 8.571429,12.14286 6.428572,16.42857 30.714284,69.28571 30.714284,69.28571 l 14.28572,0.71429 -0.71429,-45 c 0,0 -6.42857,-15 -21.42857,-50 -15.000001,-35 -22.857144,-47.14286 -22.857144,-47.14286 l -35,0.71429 c 0,0 -8.571429,44.28571 -9.285714,54.28571 -0.714286,10 0,107.14286 0,107.14286 z"
             style="fill:#000000;fill-opacity:1;stroke:#000000;stroke-width:1.12506044px;stroke-linecap:butt;stroke-linejoin:miter;stroke-opacity:1" />
          <path
             style="fill:#000000;fill-opacity:1;stroke:#000000;stroke-width:1.12506044px;stroke-linecap:butt;stroke-linejoin:miter;stroke-opacity:1"
             d="m 215.39683,875.93361 -32.85715,0 0.71429,-76.42857 c 0,0 -2.85714,-22.85715 -3.57143,-25.71429 -0.71428,-2.85714 -2.14286,-4.28571 -8.57143,12.14286 -6.42857,16.42857 -30.71428,69.28571 -30.71428,69.28571 l -14.28572,0.71429 0.71429,-45 c 0,0 6.42857,-15 21.42857,-50 15,-35 22.85714,-47.14286 22.85714,-47.14286 l 35,0.71429 c 0,0 8.57143,44.28571 9.28572,54.28571 0.71428,10 0,107.14286 0,107.14286 z"
             id="path5101"
             inkscape:connector-curvature="0"
             sodipodi:nodetypes="cccsscccsccsc" />
        </g>
        <rect
           style="fill:#000000;fill-opacity:1;fill-rule:evenodd;stroke:#000000;stroke-width:18.22597885;stroke-miterlimit:4;stroke-opacity:1;stroke-dasharray:none;stroke-dashoffset:0"
           id="rect5107"
           width="7.323606"
           height="3.2829957"
           x="125.00639"
           y="812.93573" />
      </g>
      <path
         sodipodi:nodetypes="ccccccccccsccscc"
         transform="translate(0,540.36218)"
         inkscape:connector-curvature="0"
         id="path5115"
         d="m 219.96072,173.85143 44.19417,0.25254 30.05204,48.9924 3.03046,0.25254 29.29442,-49.75001 39.90103,0.25253 -50.00255,76.51906 -0.25254,4.04061 c 6.77179,-1.60162 57.69862,83.57775 51.77031,82.07489 l -41.66879,-0.25253 c 0.1895,0.0529 -26.90962,-55.51672 -32.82995,-54.80078 -6.04697,0.73126 -36.45797,55.80447 -35.35534,54.2957 l -39.14341,0.25254 c -5.31122,-2.32915 52.946,-87.85544 53.28554,-81.06474 l -0.25254,-5.05077 z"
         style="fill:#000000;fill-opacity:1;stroke:#000000;stroke-width:1.12506044px;stroke-linecap:butt;stroke-linejoin:miter;stroke-opacity:1" />
      <path
         transform="translate(0,540.36218)"
         inkscape:connector-curvature="0"
         id="path5117"
         d="m 373.25137,173.5989 0.25254,162.12948 34.34518,0.25254 0,-67.17515 64.64976,0.25254 -0.50507,-29.29442 -64.14469,0 0,-36.61803 72.98352,0 0,-29.54696 z"
         style="fill:#000000;fill-opacity:1;stroke:#000000;stroke-width:1.12506044px;stroke-linecap:butt;stroke-linejoin:miter;stroke-opacity:1" />
    </g>
  </g>
  <g
     transform="translate(0,-540.36218)"
     id="g4723"
     inkscape:groupmode="layer"
     inkscape:label="Copie de Calque 1">
    <path
       transform="matrix(4.4999999,0,0,4.4821429,1288.4495,393.48316)"
       d="m -172.73608,89.756233 c 0,31.241947 -25.3266,56.568547 -56.56855,56.568547 -31.24194,0 -56.56854,-25.3266 -56.56854,-56.568547 0,-31.241943 25.3266,-56.568542 56.56854,-56.568542 31.24195,0 56.56855,25.326599 56.56855,56.568542 z"
       sodipodi:ry="56.568542"
       sodipodi:rx="56.568542"
       sodipodi:cy="89.756233"
       sodipodi:cx="-229.30463"
       id="path4725"
       style="opacity:0.95999995000000005;fill:none;stroke:#000000;stroke-width:2.22664457;stroke-miterlimit:4;stroke-opacity:1;stroke-dasharray:none;stroke-dashoffset:0"
       sodipodi:type="arc" />
  </g>
</svg>
