<?xml version="1.0" encoding="UTF-8" standalone="no"?>
<!-- Created with Inkscape (http://www.inkscape.org/) -->

<svg
   xmlns:dc="http://purl.org/dc/elements/1.1/"
   xmlns:cc="http://creativecommons.org/ns#"
   xmlns:rdf="http://www.w3.org/1999/02/22-rdf-syntax-ns#"
   xmlns:svg="http://www.w3.org/2000/svg"
   xmlns="http://www.w3.org/2000/svg"
   xmlns:sodipodi="http://sodipodi.sourceforge.net/DTD/sodipodi-0.dtd"
   xmlns:inkscape="http://www.inkscape.org/namespaces/inkscape"
   width="512"
   height="512"
   id="svg2"
   version="1.1"
   inkscape:version="0.48.5 r10040"
   sodipodi:docname="wav-bullet.svg">
  <defs
     id="defs4">
    <inkscape:path-effect
       effect="spiro"
       id="path-effect3870"
       is_visible="true" />
    <inkscape:path-effect
       effect="spiro"
       id="path-effect3866"
       is_visible="true" />
    <linearGradient
       id="linearGradient3012">
      <stop
         id="stop3014"
         offset="0"
         style="stop-color:#000000;stop-opacity:1;" />
      <stop
         id="stop3016"
         offset="1"
         style="stop-color:#000000;stop-opacity:0;" />
    </linearGradient>
    <linearGradient
       id="linearGradient3012-5">
      <stop
         id="stop3014-6"
         offset="0"
         style="stop-color:#000000;stop-opacity:1;" />
      <stop
         id="stop3016-2"
         offset="1"
         style="stop-color:#000000;stop-opacity:0;" />
    </linearGradient>
    <inkscape:path-effect
       is_visible="true"
       id="path-effect3866-5"
       effect="spiro" />
    <inkscape:path-effect
       is_visible="true"
       id="path-effect3870-7"
       effect="spiro" />
  </defs>
  <sodipodi:namedview
     id="base"
     pagecolor="#ffffff"
     bordercolor="#666666"
     borderopacity="1.0"
     inkscape:pageopacity="0.0"
     inkscape:pageshadow="2"
     inkscape:zoom="0.98994949"
     inkscape:cx="256.6081"
     inkscape:cy="157.65769"
     inkscape:document-units="px"
     inkscape:current-layer="layer1"
     showgrid="false"
     showguides="true"
     inkscape:guide-bbox="true"
     inkscape:window-width="1876"
     inkscape:window-height="1036"
     inkscape:window-x="21"
     inkscape:window-y="21"
     inkscape:window-maximized="0"
     inkscape:snap-to-guides="false">
    <sodipodi:guide
       orientation="0,1"
       position="256.57875,255.56859"
       id="guide3846" />
    <sodipodi:guide
       orientation="1,0"
       position="256.57875,368.70568"
       id="guide3848" />
  </sodipodi:namedview>
  <metadata
     id="metadata7">
    <rdf:RDF>
      <cc:Work
         rdf:about="">
        <dc:format>image/svg+xml</dc:format>
        <dc:type
           rdf:resource="http://purl.org/dc/dcmitype/StillImage" />
        <dc:title></dc:title>
      </cc:Work>
    </rdf:RDF>
  </metadata>
  <g
     inkscape:label="Calque 1"
     inkscape:groupmode="layer"
     id="layer1"
     transform="translate(0,-540.36218)"
     style="display:inline">
    <path
       sodipodi:type="arc"
       style="fill:#ffffff;fill-opacity:1;fill-rule:evenodd;stroke:none"
       id="path7013"
       sodipodi:cx="255.56859"
       sodipodi:cy="254.91618"
       sodipodi:rx="255.56859"
       sodipodi:ry="255.06352"
       d="m 511.13718,254.91618 c 0,140.8677 -114.42196,255.06353 -255.56859,255.06353 C 114.42195,509.97971 0,395.78388 0,254.91618 0,114.04849 114.42195,-0.14733887 255.56859,-0.14733887 c 141.14663,0 255.56859,114.19582887 255.56859,255.06351887 z"
       transform="translate(0,540.36218)" />
    <path
       sodipodi:type="arc"
       style="fill:none;stroke:#7a7cf4;stroke-width:9.76102924;stroke-miterlimit:4;stroke-opacity:1;stroke-dasharray:none;stroke-dashoffset:0"
       id="path3066"
       sodipodi:cx="-229.30463"
       sodipodi:cy="89.756233"
       sodipodi:rx="56.568542"
       sodipodi:ry="56.568542"
       d="m -172.73608,89.756233 c 0,31.241947 -25.3266,56.568547 -56.56855,56.568547 -31.24194,0 -56.56854,-25.3266 -56.56854,-56.568547 0,-31.241943 25.3266,-56.568542 56.56854,-56.568542 31.24195,0 56.56855,25.326599 56.56855,56.568542 z"
       transform="matrix(4.169642,0,0,4.1696427,1211.1817,423.04725)" />
    <path
       style="fill:#000000;fill-opacity:1;stroke:#000000;stroke-width:1px;stroke-linecap:butt;stroke-linejoin:miter;stroke-opacity:1"
       d="m 158.41124,732.14381 72.73098,-66.67005 7.07107,-1.01015 1.01016,261.6295 -10.10153,-1.0101 -70.71068,-69.7006 -14.14213,-5.0507 -41.41626,0 -10.10152,-9.0914 0,-92.934 12.12183,-11.1117 40.4061,1.0101 z"
       id="path3858"
       inkscape:connector-curvature="0" />
    <path
       style="fill:#000000;fill-opacity:1;stroke:#000000;stroke-width:1px;stroke-linecap:butt;stroke-linejoin:miter;stroke-opacity:1"
       d="m 280.82245,854.37231 c 34.66222,-40.5141 24.20064,-83.0794 0,-126.2691 l 31.31472,-26.26396 c 41.17913,60.94586 49.23606,121.89176 -1.01015,182.83766 z"
       id="path3860"
       inkscape:connector-curvature="0"
       sodipodi:nodetypes="ccccc" />
    <path
       style="fill:#000000;fill-opacity:1;stroke:#000000;stroke-width:1px;stroke-linecap:butt;stroke-linejoin:miter;stroke-opacity:1"
       d="m 332.34023,909.93071 35.35533,29.2944 c 74.928,-88.8872 84.89142,-182.1787 1.01016,-281.83257 l -33.33504,28.28427 c 61.63707,73.4461 64.60675,148.1145 -3.03045,224.2539 z"
       id="path3862"
       inkscape:connector-curvature="0"
       sodipodi:nodetypes="ccccc" />
    <path
       sodipodi:type="arc"
       style="fill:#000000;fill-opacity:1;fill-rule:evenodd;stroke:#000000;stroke-width:5;stroke-miterlimit:4;stroke-opacity:0;stroke-dasharray:none;stroke-dashoffset:0;opacity:0.7"
       id="path3211"
       sodipodi:cx="255.56859"
       sodipodi:cy="255.92633"
       sodipodi:rx="256.57874"
       sodipodi:ry="257.08383"
       d="m 512.14732,255.92633 a 256.57874,257.08383 0 1 1 -513.1574671,0 256.57874,257.08383 0 1 1 513.1574671,0 z"
       transform="translate(0,540.36218)" />
  </g>
  <g
     transform="translate(0,-540.36218)"
     id="g4723"
     inkscape:groupmode="layer"
     inkscape:label="Copie de Calque 1"
     style="display:inline">
    <path
       transform="matrix(4.4999999,0,0,4.4821429,1288.4495,393.48316)"
       d="m -172.73608,89.756233 c 0,31.241947 -25.3266,56.568547 -56.56855,56.568547 -31.24194,0 -56.56854,-25.3266 -56.56854,-56.568547 0,-31.241943 25.3266,-56.568542 56.56854,-56.568542 31.24195,0 56.56855,25.326599 56.56855,56.568542 z"
       sodipodi:ry="56.568542"
       sodipodi:rx="56.568542"
       sodipodi:cy="89.756233"
       sodipodi:cx="-229.30463"
       id="path4725"
       style="opacity:0.95999995;fill:none;stroke:#000000;stroke-width:2.22664452;stroke-miterlimit:4;stroke-opacity:1;stroke-dasharray:none;stroke-dashoffset:0"
       sodipodi:type="arc" />
  </g>
</svg>
